<svg width="523px" height="523px" role="img" aria-labelledby="logoTitle logoDesc"
    viewBox="0 0 523 523" version="1.1" xmlns="http://www.w3.org/2000/svg"
    xmlns:xlink="http://www.w3.org/1999/xlink">
    <title id="logoTitle">My Logo</title>
    <desc id="logoDesc">Two red letter C facing each other with a red star in the middle. There are
        rounded blue borders around each shape.</desc>
    <g stroke="none" stroke-width="1" fill="none" fill-rule="evenodd" stroke-linejoin="round">
        <g id="logoFillStroke" transform="translate(-273.000000, -49.000000)"
            fill="rgb(var(--color-primary))" stroke="rgb(var(--color-dark))" stroke-width="10">
            <g transform="translate(278.498700, 54.121500)">
                <path
                    d="M407.204308,177.120492 L388.165785,144.143754 L388.165785,144.143754 L387.523815,143.029169 L394.845415,130.343385 L385.968123,114.967631 L371.320985,114.967631 L361.159754,97.3666462 L396.133292,97.3666462 L405.652554,113.856985 L415.813785,131.457969 L408.488246,144.143754 L417.365538,159.519508 L432.016615,159.519508 L442.177846,177.120492 L407.204308,177.120492 Z M347.588923,414.637292 L266.759877,414.637292 L266.759877,311.059692 L287.791262,311.059692 L319.578585,256 L287.791262,200.944246 L266.759877,200.944246 L266.759877,97.3666462 L347.588923,97.3666462 L439.177846,256 L347.588923,414.637292 Z M245.244062,414.637292 L164.415015,414.637292 L72.8260923,256 L164.415015,97.3666462 L245.244062,97.3666462 L245.244062,200.944246 L224.212677,200.944246 L192.425354,256 L224.212677,311.059692 L245.244062,311.059692 L245.244062,414.637292 Z M256,0 C114.616889,0 0,114.616889 0,256 C0,397.385956 114.616889,512 256,512 C397.385956,512 512,397.385956 512,256 C512,114.616889 397.385956,0 256,0 L256,0 Z"
                    id="Fill-31"></path>
            </g>
        </g>
    </g>
</svg>