<svg height="512" viewBox="0 0 400 400" width="512" aria-labelledby="clapTitle clapDesc" xmlns="http://www.w3.org/2000/svg">
  <title id="clapTitle">Clap Icon</title>
  <desc id="clapDesc">Two hands clapping</desc>
  <g>
    <path d="m371.3 213.86c-5.28-26.51 6.41-62.93-19.95-80.12a28 28 0 0 0 -22.4-3.51 28.57 28.57 0 0 0 -18 14.63 76 76 0 0 0 -8.11 28.84l-38.94-48.51c-4.45-5.54-15.65-18.76-23.63-21.92-18.85-7-30.47 2.08-33.68 14.38-18.76-21.73-49.18-11.86-52.92 16.25-1 7.39 2.52 16.68 10.73 28.21-.51 0-1 0-1.54 0l.57.53c-4.05-4-9.76-5.74-15.3-6.33-8.89-.93-24.68 7-29.19 10.22-4.69 3.32-9.27 6.71-13.78 10.23-52.48 41.18-78.28 83.24-78.89 112.18-.8 20.75 9.05 39.6 21.37 56.1 25.94 38.95 77.63 51 102.94 51.77a116.1 116.1 0 0 0 29.47-2.2c28.17-5.23 71.29 7.36 83.4-27.09 24.1 1.7 45-10.62 63.63-25.34 42.45-34.18 51.26-91.91 44.22-128.32zm-203.75-78.05c2-15.61 16.47-21.58 27.71-9.86 2.42 2.49 25.86 31.36 45.72 56a88.67 88.67 0 0 0 -9.18 5.81c-.46-28-31.2-35.82-51.69-21.17a38.75 38.75 0 0 1 3.59-2.28l-3.34-4.31c-10.16-12.65-13.28-20.8-12.81-24.19zm10.36 32.4-9 7.24c0-.28 0-.56-.08-.83 0 .27.07.54.09.82zm72.72 192c-3 18.57-23.92 18.66-43.87 18.72-9.7 0-19.73.06-29.37 1.92a102.32 102.32 0 0 1 -25.93 2c-53.84-4.56-77.7-24.31-97.07-52.38a89.74 89.74 0 0 1 -10.87-20.7c-5.72-15.95-4.57-34.83 9.82-56.88 12-22.53 46-56.3 74.44-75.41a64.09 64.09 0 0 1 16-6.82c3-1 7.72.11 9.33 1.48 1.66 1.09 2.15 4.45 1.85 7.34a18.71 18.71 0 0 1 -7.15 12.92c-5.61 4.45-13.9 11.2-19.55 15.7-7 6.06 1.39 16.47 8.76 10.91.73-.54 5.47-4.42 6.32-5.07l28.5-22.88c.46-.44 9.17-7.31 9.26-7.44 3-2.3 6.8-5.85 10.2-7.53 6-3 13.47-4 19.56-1 8.31 4.78 8.85 15.58 3.15 23.21a33.6 33.6 0 0 1 -7 7l-.42.34-5 4.11-.42.34-14.47 11.91c-5.52 4.56-14.92 12.26-20.34 16.73a7 7 0 0 0 7.78 11.56 40.81 40.81 0 0 0 3.61-2.7l56.14-44c5.86-4.64 10.37-7.83 16.06-10.62a19.71 19.71 0 0 1 7.2-2.23c5.3.29 11 2.82 14.21 7 3.95 5.12 3.47 11.71-.33 17.09a24.18 24.18 0 0 1 -3.17 3.75c-.9.94-6.76 5.7-13.61 11.35-15.33 12.55-40.13 32.58-57.55 46.62-5.05 4.12-2 12.47 4.47 12.39a7.19 7.19 0 0 0 4.38-1.54c4.66-3.53 33.13-27.11 53.08-42.75 5.67-2 23-4.89 20.13 9.7a13.8 13.8 0 0 1 -2.76 6.65c-2.93 3.8-9.19 9.83-16.06 15.34l-47.3 38c-3.42 2.73-11.39 9.17-14.75 11.85l-4.06 3.26a7.34 7.34 0 0 0 -2.47 4 7.06 7.06 0 0 0 8.85 8.15 59 59 0 0 1 15.28-1.6 62.56 62.56 0 0 1 27.19 6.75 14.49 14.49 0 0 1 7.95 13.47zm-3.36-181.21c.32-.13.65-.24 1-.35zm112.26 63.49c-3.26 51.69-27.15 77.77-41.09 88.72-16 12.52-33.13 23.9-54.47 22.28a27.81 27.81 0 0 1 .33 10.36 28.45 28.45 0 0 0 -15.25-29.55 76 76 0 0 0 -28.84-8.1l48.51-38.94 1.12-.91c7.07-5.94 17.18-14.52 20.8-22.72 6.63-17.78-1.06-30.14-14.38-33.68 15.77-13.34 16.1-36.24-1.14-47.38-5.65-3.6-13.12-6.26-20.14-5.57-9-11.19-22.67-28.07-33.43-41.25l-.08-.26c-.05-.15-5.15-15 2.35-19.64 1.37-.84 5.5-1.82 11.32.48 3 1.2 10.86 9 17.86 17.67l53.08 66.11c4.78 5.89 14.28.93 12.16-6.38a63 63 0 0 1 5.18-42.46c3.59-7.4 13.47-10.38 20.34-5.73 11.77 7.59 11.82 23.37 11.87 41.65 0 9.7.07 19.73 1.93 29.37a101.8 101.8 0 0 1 1.97 25.89z" />
    <path d="m231.52 65.49a7 7 0 0 0 7.89-6l6.7-48.49a7 7 0 0 0 -13.87-2l-6.7 48.56a7 7 0 0 0 5.98 7.93z" />
    <path d="m73.84 84.94 45 19.44a6.94 6.94 0 0 0 2.77.57c7.49 0 9.74-10.33 2.78-13.43l-45-19.43a7 7 0 1 0 -5.55 12.85z" />
    <path d="m160.23 67.86a7 7 0 1 0 13.06-5l-17.62-45.77c-3.61-8.52-16.09-3.75-13.06 5z" />
  </g>
</svg>